<?plantuml 1.2026.1?><svg xmlns="http://www.w3.org/2000/svg" xmlns:xlink="http://www.w3.org/1999/xlink" contentStyleType="text/css" data-diagram-type="DESCRIPTION" height="378px" preserveAspectRatio="none" style="width:247px;height:378px;background:#FFFFFF;" version="1.1" viewBox="0 0 247 378" width="247px" zoomAndPan="magnify"><defs/><g><!--entity Web App--><g class="entity" data-qualified-name="Web App" data-source-line="1" id="ent0002"><rect fill="#F1F1F1" height="46.2969" rx="2.5" ry="2.5" style="stroke:#181818;stroke-width:0.5;" width="103.1436" x="82.8" y="7"/><rect fill="#F1F1F1" height="10" style="stroke:#181818;stroke-width:0.5;" width="15" x="165.9436" y="12"/><rect fill="#F1F1F1" height="2" style="stroke:#181818;stroke-width:0.5;" width="4" x="163.9436" y="14"/><rect fill="#F1F1F1" height="2" style="stroke:#181818;stroke-width:0.5;" width="4" x="163.9436" y="18"/><text fill="#000000" font-family="sans-serif" font-size="14" lengthAdjust="spacing" textLength="63.1436" x="97.8" y="39.9951">Web App</text></g><!--entity API--><g class="entity" data-qualified-name="API" data-source-line="1" id="ent0003"><rect fill="#F1F1F1" height="46.2969" rx="2.5" ry="2.5" style="stroke:#181818;stroke-width:0.5;" width="62.1484" x="103.3" y="113.3"/><rect fill="#F1F1F1" height="10" style="stroke:#181818;stroke-width:0.5;" width="15" x="145.4484" y="118.3"/><rect fill="#F1F1F1" height="2" style="stroke:#181818;stroke-width:0.5;" width="4" x="143.4484" y="120.3"/><rect fill="#F1F1F1" height="2" style="stroke:#181818;stroke-width:0.5;" width="4" x="143.4484" y="124.3"/><text fill="#000000" font-family="sans-serif" font-size="14" lengthAdjust="spacing" textLength="22.1484" x="118.3" y="146.2951">API</text></g><!--entity Service Layer--><g class="entity" data-qualified-name="Service Layer" data-source-line="2" id="ent0005"><rect fill="#F1F1F1" height="46.2969" rx="2.5" ry="2.5" style="stroke:#181818;stroke-width:0.5;" width="135.2246" x="66.76" y="219.6"/><rect fill="#F1F1F1" height="10" style="stroke:#181818;stroke-width:0.5;" width="15" x="181.9846" y="224.6"/><rect fill="#F1F1F1" height="2" style="stroke:#181818;stroke-width:0.5;" width="4" x="179.9846" y="226.6"/><rect fill="#F1F1F1" height="2" style="stroke:#181818;stroke-width:0.5;" width="4" x="179.9846" y="230.6"/><text fill="#000000" font-family="sans-serif" font-size="14" lengthAdjust="spacing" textLength="95.2246" x="81.76" y="252.5951">Service Layer</text></g><!--entity PostgreSQL--><g class="entity" data-qualified-name="PostgreSQL" data-source-line="3" id="ent0007"><rect fill="#F1F1F1" height="46.2969" rx="2.5" ry="2.5" style="stroke:#181818;stroke-width:0.5;" width="120.7529" x="7" y="325.89"/><rect fill="#F1F1F1" height="10" style="stroke:#181818;stroke-width:0.5;" width="15" x="107.7529" y="330.89"/><rect fill="#F1F1F1" height="2" style="stroke:#181818;stroke-width:0.5;" width="4" x="105.7529" y="332.89"/><rect fill="#F1F1F1" height="2" style="stroke:#181818;stroke-width:0.5;" width="4" x="105.7529" y="336.89"/><text fill="#000000" font-family="sans-serif" font-size="14" lengthAdjust="spacing" textLength="80.7529" x="22" y="358.8851">PostgreSQL</text></g><!--entity Redis--><g class="entity" data-qualified-name="Redis" data-source-line="4" id="ent0009"><rect fill="#F1F1F1" height="46.2969" rx="2.5" ry="2.5" style="stroke:#181818;stroke-width:0.5;" width="78.4111" x="163.17" y="325.89"/><rect fill="#F1F1F1" height="10" style="stroke:#181818;stroke-width:0.5;" width="15" x="221.5811" y="330.89"/><rect fill="#F1F1F1" height="2" style="stroke:#181818;stroke-width:0.5;" width="4" x="219.5811" y="332.89"/><rect fill="#F1F1F1" height="2" style="stroke:#181818;stroke-width:0.5;" width="4" x="219.5811" y="336.89"/><text fill="#000000" font-family="sans-serif" font-size="14" lengthAdjust="spacing" textLength="38.4111" x="178.17" y="358.8851">Redis</text></g><!--link Web App to API--><g class="link" data-entity-1="ent0002" data-entity-2="ent0003" data-link-type="dependency" data-source-line="1" id="lnk4"><path d="M134.38,53.78 C134.38,71.28 134.38,89.38 134.38,106.86" fill="none" id="Web App-to-API" style="stroke:#181818;stroke-width:1;"/><polygon fill="#181818" points="134.38,112.86,138.38,103.86,134.38,107.86,130.38,103.86,134.38,112.86" style="stroke:#181818;stroke-width:1;"/></g><!--link API to Service Layer--><g class="link" data-entity-1="ent0003" data-entity-2="ent0005" data-link-type="dependency" data-source-line="2" id="lnk6"><path d="M134.38,160.08 C134.38,177.57 134.38,195.68 134.38,213.16" fill="none" id="API-to-Service Layer" style="stroke:#181818;stroke-width:1;"/><polygon fill="#181818" points="134.38,219.16,138.38,210.16,134.38,214.16,130.38,210.16,134.38,219.16" style="stroke:#181818;stroke-width:1;"/></g><!--link Service Layer to PostgreSQL--><g class="link" data-entity-1="ent0005" data-entity-2="ent0007" data-link-type="dependency" data-source-line="3" id="lnk8"><path d="M119.84,266.38 C108.6,283.87 96.3631,302.922 85.1331,320.402" fill="none" id="Service Layer-to-PostgreSQL" style="stroke:#181818;stroke-width:1;"/><polygon fill="#181818" points="81.89,325.45,90.12,320.04,84.5926,321.2433,83.3893,315.7159,81.89,325.45" style="stroke:#181818;stroke-width:1;"/></g><!--link Service Layer to Redis--><g class="link" data-entity-1="ent0005" data-entity-2="ent0009" data-link-type="dependency" data-source-line="4" id="lnk10"><path d="M149.13,266.38 C160.54,283.87 172.9724,302.9443 184.3724,320.4243" fill="none" id="Service Layer-to-Redis" style="stroke:#181818;stroke-width:1;"/><polygon fill="#181818" points="187.65,325.45,186.084,315.7264,184.9187,321.2619,179.3831,320.0966,187.65,325.45" style="stroke:#181818;stroke-width:1;"/></g><?plantuml-src YmvFJL9mB2Y8LT3LjLE8TWpmZEK2an1-S6fHMMPoge9FOcLg4L06bGzH4v1VN99Ub1eSw8D3GL1gIcPnB000?></g></svg>