<?xml version="1.0" encoding="UTF-8" standalone="no"?>
<!DOCTYPE svg PUBLIC "-//W3C//DTD SVG 1.1//EN"
 "http://www.w3.org/Graphics/SVG/1.1/DTD/svg11.dtd">
<!-- Generated by graphviz version 9.0.0 (20230911.1827)
 -->
<!-- Title: G Pages: 1 -->
<svg width="470pt" height="260pt"
 viewBox="0.00 0.00 469.84 260.00" xmlns="http://www.w3.org/2000/svg" xmlns:xlink="http://www.w3.org/1999/xlink">
<g id="graph0" class="graph" transform="scale(1 1) rotate(0) translate(4 256)">
<title>G</title>
<polygon fill="white" stroke="none" points="-4,4 -4,-256 465.84,-256 465.84,4 -4,4"/>
<!-- Generator -->
<g id="node1" class="node">
<title>Generator</title>
<ellipse fill="none" stroke="black" cx="218.56" cy="-234" rx="62.26" ry="18"/>
<text text-anchor="middle" x="218.56" y="-229.32" font-family="Times,serif" font-size="14.00">Generator</text>
</g>
<!-- RC Circuit -->
<g id="node2" class="node">
<title>RC Circuit</title>
<ellipse fill="none" stroke="black" cx="218.56" cy="-162" rx="63.31" ry="18"/>
<text text-anchor="middle" x="218.56" y="-157.32" font-family="Times,serif" font-size="14.00">RC Circuit</text>
</g>
<!-- Generator&#45;&gt;RC Circuit -->
<g id="edge1" class="edge">
<title>Generator&#45;&gt;RC Circuit</title>
<path fill="none" stroke="black" d="M218.56,-215.7C218.56,-208.41 218.56,-199.73 218.56,-191.54"/>
<polygon fill="black" stroke="black" points="222.06,-191.62 218.56,-181.62 215.06,-191.62 222.06,-191.62"/>
</g>
<!-- Oscilloscope -->
<g id="node3" class="node">
<title>Oscilloscope</title>
<ellipse fill="none" stroke="black" cx="129.56" cy="-90" rx="73.3" ry="18"/>
<text text-anchor="middle" x="129.56" y="-85.33" font-family="Times,serif" font-size="14.00">Oscilloscope</text>
</g>
<!-- RC Circuit&#45;&gt;Oscilloscope -->
<g id="edge2" class="edge">
<title>RC Circuit&#45;&gt;Oscilloscope</title>
<path fill="none" stroke="black" d="M197.92,-144.76C186.51,-135.79 172.14,-124.49 159.52,-114.56"/>
<polygon fill="black" stroke="black" points="161.92,-112 151.9,-108.57 157.59,-117.5 161.92,-112"/>
</g>
<!-- Current sensor -->
<g id="node4" class="node">
<title>Current sensor</title>
<ellipse fill="none" stroke="black" cx="322.56" cy="-90" rx="86.98" ry="18"/>
<text text-anchor="middle" x="322.56" y="-85.33" font-family="Times,serif" font-size="14.00">Current sensor</text>
</g>
<!-- RC Circuit&#45;&gt;Current sensor -->
<g id="edge3" class="edge">
<title>RC Circuit&#45;&gt;Current sensor</title>
<path fill="none" stroke="black" d="M242.42,-144.94C256,-135.8 273.24,-124.2 288.24,-114.1"/>
<polygon fill="black" stroke="black" points="290.13,-117.05 296.47,-108.56 286.22,-111.24 290.13,-117.05"/>
</g>
<!-- Phase calculation -->
<g id="node5" class="node">
<title>Phase calculation</title>
<ellipse fill="none" stroke="black" cx="98.56" cy="-18" rx="98.56" ry="18"/>
<text text-anchor="middle" x="98.56" y="-13.32" font-family="Times,serif" font-size="14.00">Phase calculation</text>
</g>
<!-- Oscilloscope&#45;&gt;Phase calculation -->
<g id="edge4" class="edge">
<title>Oscilloscope&#45;&gt;Phase calculation</title>
<path fill="none" stroke="black" d="M121.9,-71.7C118.52,-64.07 114.46,-54.92 110.69,-46.4"/>
<polygon fill="black" stroke="black" points="114,-45.21 106.75,-37.49 107.59,-48.05 114,-45.21"/>
</g>
<!-- Impedance calculation -->
<g id="node6" class="node">
<title>Impedance calculation</title>
<ellipse fill="none" stroke="black" cx="338.56" cy="-18" rx="123.29" ry="18"/>
<text text-anchor="middle" x="338.56" y="-13.32" font-family="Times,serif" font-size="14.00">Impedance calculation</text>
</g>
<!-- Current sensor&#45;&gt;Impedance calculation -->
<g id="edge5" class="edge">
<title>Current sensor&#45;&gt;Impedance calculation</title>
<path fill="none" stroke="black" d="M326.51,-71.7C328.2,-64.32 330.21,-55.52 332.1,-47.25"/>
<polygon fill="black" stroke="black" points="335.49,-48.11 334.31,-37.58 328.67,-46.55 335.49,-48.11"/>
</g>
</g>
</svg>
