<?xml version="1.0" encoding="UTF-8" standalone="no"?>
<!DOCTYPE svg PUBLIC "-//W3C//DTD SVG 1.1//EN"
 "http://www.w3.org/Graphics/SVG/1.1/DTD/svg11.dtd">
<!-- Generated by graphviz version 9.0.0 (20230911.1827)
 -->
<!-- Title: G Pages: 1 -->
<svg width="482pt" height="260pt"
 viewBox="0.00 0.00 482.16 260.00" xmlns="http://www.w3.org/2000/svg" xmlns:xlink="http://www.w3.org/1999/xlink">
<g id="graph0" class="graph" transform="scale(1 1) rotate(0) translate(4 256)">
<title>G</title>
<polygon fill="white" stroke="none" points="-4,4 -4,-256 478.16,-256 478.16,4 -4,4"/>
<!-- Generador -->
<g id="node1" class="node">
<title>Generador</title>
<ellipse fill="none" stroke="black" cx="226.35" cy="-234" rx="64.36" ry="18"/>
<text text-anchor="middle" x="226.35" y="-229.32" font-family="Times,serif" font-size="14.00">Generador</text>
</g>
<!-- Circuito RC -->
<g id="node2" class="node">
<title>Circuito RC</title>
<ellipse fill="none" stroke="black" cx="226.35" cy="-162" rx="69.1" ry="18"/>
<text text-anchor="middle" x="226.35" y="-157.32" font-family="Times,serif" font-size="14.00">Circuito RC</text>
</g>
<!-- Generador&#45;&gt;Circuito RC -->
<g id="edge1" class="edge">
<title>Generador&#45;&gt;Circuito RC</title>
<path fill="none" stroke="black" d="M226.35,-215.7C226.35,-208.41 226.35,-199.73 226.35,-191.54"/>
<polygon fill="black" stroke="black" points="229.85,-191.62 226.35,-181.62 222.85,-191.62 229.85,-191.62"/>
</g>
<!-- Osciloscopio -->
<g id="node3" class="node">
<title>Osciloscopio</title>
<ellipse fill="none" stroke="black" cx="115.35" cy="-90" rx="73.3" ry="18"/>
<text text-anchor="middle" x="115.35" y="-85.33" font-family="Times,serif" font-size="14.00">Osciloscopio</text>
</g>
<!-- Circuito RC&#45;&gt;Osciloscopio -->
<g id="edge2" class="edge">
<title>Circuito RC&#45;&gt;Osciloscopio</title>
<path fill="none" stroke="black" d="M200.88,-144.94C186.04,-135.58 167.1,-123.64 150.81,-113.37"/>
<polygon fill="black" stroke="black" points="152.68,-110.41 142.36,-108.03 148.95,-116.33 152.68,-110.41"/>
</g>
<!-- Sensor de corriente -->
<g id="node4" class="node">
<title>Sensor de corriente</title>
<ellipse fill="none" stroke="black" cx="338.35" cy="-90" rx="110.13" ry="18"/>
<text text-anchor="middle" x="338.35" y="-85.33" font-family="Times,serif" font-size="14.00">Sensor de corriente</text>
</g>
<!-- Circuito RC&#45;&gt;Sensor de corriente -->
<g id="edge3" class="edge">
<title>Circuito RC&#45;&gt;Sensor de corriente</title>
<path fill="none" stroke="black" d="M252.04,-144.94C266.8,-135.71 285.58,-123.98 301.85,-113.81"/>
<polygon fill="black" stroke="black" points="303.69,-116.79 310.32,-108.52 299.98,-110.85 303.69,-116.79"/>
</g>
<!-- Cálculo de desfase -->
<g id="node5" class="node">
<title>Cálculo de desfase</title>
<ellipse fill="none" stroke="black" cx="104.35" cy="-18" rx="104.35" ry="18"/>
<text text-anchor="middle" x="104.35" y="-13.32" font-family="Times,serif" font-size="14.00">Cálculo de desfase</text>
</g>
<!-- Osciloscopio&#45;&gt;Cálculo de desfase -->
<g id="edge4" class="edge">
<title>Osciloscopio&#45;&gt;Cálculo de desfase</title>
<path fill="none" stroke="black" d="M112.63,-71.7C111.47,-64.32 110.08,-55.52 108.78,-47.25"/>
<polygon fill="black" stroke="black" points="112.28,-46.93 107.27,-37.6 105.36,-48.02 112.28,-46.93"/>
</g>
<!-- Cálculo de impedancia -->
<g id="node6" class="node">
<title>Cálculo de impedancia</title>
<ellipse fill="none" stroke="black" cx="350.35" cy="-18" rx="123.81" ry="18"/>
<text text-anchor="middle" x="350.35" y="-13.32" font-family="Times,serif" font-size="14.00">Cálculo de impedancia</text>
</g>
<!-- Sensor de corriente&#45;&gt;Cálculo de impedancia -->
<g id="edge5" class="edge">
<title>Sensor de corriente&#45;&gt;Cálculo de impedancia</title>
<path fill="none" stroke="black" d="M341.31,-71.7C342.58,-64.32 344.08,-55.52 345.5,-47.25"/>
<polygon fill="black" stroke="black" points="348.92,-48.04 347.16,-37.6 342.02,-46.86 348.92,-48.04"/>
</g>
</g>
</svg>
