<svg id="my-svg" width="100%" xmlns="http://www.w3.org/2000/svg" xmlns:xlink="http://www.w3.org/1999/xlink" class="classDiagram" style="max-width: 688.594px; background-color: transparent;" viewBox="0 0 688.59375 450" role="graphics-document document" aria-roledescription="class"><style>#my-svg{font-family:"trebuchet ms",verdana,arial,sans-serif;font-size:16px;fill:#333;}@keyframes edge-animation-frame{from{stroke-dashoffset:0;}}@keyframes dash{to{stroke-dashoffset:0;}}#my-svg .edge-animation-slow{stroke-dasharray:9,5!important;stroke-dashoffset:900;animation:dash 50s linear infinite;stroke-linecap:round;}#my-svg .edge-animation-fast{stroke-dasharray:9,5!important;stroke-dashoffset:900;animation:dash 20s linear infinite;stroke-linecap:round;}#my-svg .error-icon{fill:#552222;}#my-svg .error-text{fill:#552222;stroke:#552222;}#my-svg .edge-thickness-normal{stroke-width:1px;}#my-svg .edge-thickness-thick{stroke-width:3.5px;}#my-svg .edge-pattern-solid{stroke-dasharray:0;}#my-svg .edge-thickness-invisible{stroke-width:0;fill:none;}#my-svg .edge-pattern-dashed{stroke-dasharray:3;}#my-svg .edge-pattern-dotted{stroke-dasharray:2;}#my-svg .marker{fill:#333333;stroke:#333333;}#my-svg .marker.cross{stroke:#333333;}#my-svg svg{font-family:"trebuchet ms",verdana,arial,sans-serif;font-size:16px;}#my-svg p{margin:0;}#my-svg g.classGroup text{fill:#9370DB;stroke:none;font-family:"trebuchet ms",verdana,arial,sans-serif;font-size:10px;}#my-svg g.classGroup text .title{font-weight:bolder;}#my-svg .cluster-label text{fill:#333;}#my-svg .cluster-label span{color:#333;}#my-svg .cluster-label span p{background-color:transparent;}#my-svg .cluster rect{fill:#ffffde;stroke:#aaaa33;stroke-width:1px;}#my-svg .cluster text{fill:#333;}#my-svg .cluster span{color:#333;}#my-svg .nodeLabel,#my-svg .edgeLabel{color:#131300;}#my-svg .noteLabel .nodeLabel,#my-svg .noteLabel .edgeLabel{color:black;}#my-svg .edgeLabel .label rect{fill:#ECECFF;}#my-svg .label text{fill:#131300;}#my-svg .labelBkg{background:#ECECFF;}#my-svg .edgeLabel .label span{background:#ECECFF;}#my-svg .classTitle{font-weight:bolder;}#my-svg .node rect,#my-svg .node circle,#my-svg .node ellipse,#my-svg .node polygon,#my-svg .node path{fill:#ECECFF;stroke:#9370DB;stroke-width:1;}#my-svg .divider{stroke:#9370DB;stroke-width:1;}#my-svg g.clickable{cursor:pointer;}#my-svg g.classGroup rect{fill:#ECECFF;stroke:#9370DB;}#my-svg g.classGroup line{stroke:#9370DB;stroke-width:1;}#my-svg .classLabel .box{stroke:none;stroke-width:0;fill:#ECECFF;opacity:0.5;}#my-svg .classLabel .label{fill:#9370DB;font-size:10px;}#my-svg .relation{stroke:#333333;stroke-width:1;fill:none;}#my-svg .dashed-line{stroke-dasharray:3;}#my-svg .dotted-line{stroke-dasharray:1 2;}#my-svg [id$="-compositionStart"],#my-svg .composition{fill:#333333!important;stroke:#333333!important;stroke-width:1;}#my-svg [id$="-compositionEnd"],#my-svg .composition{fill:#333333!important;stroke:#333333!important;stroke-width:1;}#my-svg [id$="-dependencyStart"],#my-svg .dependency{fill:#333333!important;stroke:#333333!important;stroke-width:1;}#my-svg [id$="-dependencyEnd"],#my-svg .dependency{fill:#333333!important;stroke:#333333!important;stroke-width:1;}#my-svg [id$="-extensionStart"],#my-svg .extension{fill:transparent!important;stroke:#333333!important;stroke-width:1;}#my-svg [id$="-extensionEnd"],#my-svg .extension{fill:transparent!important;stroke:#333333!important;stroke-width:1;}#my-svg [id$="-aggregationStart"],#my-svg .aggregation{fill:transparent!important;stroke:#333333!important;stroke-width:1;}#my-svg [id$="-aggregationEnd"],#my-svg .aggregation{fill:transparent!important;stroke:#333333!important;stroke-width:1;}#my-svg [id$="-lollipopStart"],#my-svg .lollipop{fill:#ECECFF!important;stroke:#333333!important;stroke-width:1;}#my-svg [id$="-lollipopEnd"],#my-svg .lollipop{fill:#ECECFF!important;stroke:#333333!important;stroke-width:1;}#my-svg .edgeTerminals{font-size:11px;line-height:initial;}#my-svg .classTitleText{text-anchor:middle;font-size:18px;fill:#333;}#my-svg .edgeLabel[data-look="neo"]{background-color:rgba(232,232,232, 0.8);text-align:center;}#my-svg .edgeLabel[data-look="neo"] p{background-color:rgba(232,232,232, 0.8);}#my-svg .edgeLabel[data-look="neo"] rect{opacity:0.5;background-color:rgba(232,232,232, 0.8);fill:rgba(232,232,232, 0.8);}#my-svg .label-icon{display:inline-block;height:1em;overflow:visible;vertical-align:-0.125em;}#my-svg .node .label-icon path{fill:currentColor;stroke:revert;stroke-width:revert;}#my-svg .node .neo-node{stroke:#9370DB;}#my-svg [data-look="neo"].node rect,#my-svg [data-look="neo"].cluster rect,#my-svg [data-look="neo"].node polygon{stroke:#9370DB;filter:drop-shadow(1px 2px 2px rgba(185, 185, 185, 1));}#my-svg [data-look="neo"].node path{stroke:#9370DB;stroke-width:1px;}#my-svg [data-look="neo"].node .outer-path{filter:drop-shadow(1px 2px 2px rgba(185, 185, 185, 1));}#my-svg [data-look="neo"].node .neo-line path{stroke:#9370DB;filter:none;}#my-svg [data-look="neo"].node circle{stroke:#9370DB;filter:drop-shadow(1px 2px 2px rgba(185, 185, 185, 1));}#my-svg [data-look="neo"].node circle .state-start{fill:#000000;}#my-svg [data-look="neo"].icon-shape .icon{fill:#9370DB;filter:drop-shadow(1px 2px 2px rgba(185, 185, 185, 1));}#my-svg [data-look="neo"].icon-shape .icon-neo path{stroke:#9370DB;filter:drop-shadow(1px 2px 2px rgba(185, 185, 185, 1));}#my-svg :root{--mermaid-font-family:"trebuchet ms",verdana,arial,sans-serif;}</style><g><defs><marker id="my-svg_class-aggregationStart" class="marker aggregation class" refX="18" refY="7" markerWidth="190" markerHeight="240" orient="auto"><path d="M 18,7 L9,13 L1,7 L9,1 Z"/></marker></defs><defs><marker id="my-svg_class-aggregationEnd" class="marker aggregation class" refX="1" refY="7" markerWidth="20" markerHeight="28" orient="auto"><path d="M 18,7 L9,13 L1,7 L9,1 Z"/></marker></defs><defs><marker id="my-svg_class-aggregationStart-margin" class="marker aggregation class" refX="15" refY="7" markerWidth="190" markerHeight="240" orient="auto" markerUnits="userSpaceOnUse"><path d="M 18,7 L9,13 L1,7 L9,1 Z" style="stroke-width: 2;"/></marker></defs><defs><marker id="my-svg_class-aggregationEnd-margin" class="marker aggregation class" refX="1" refY="7" markerWidth="20" markerHeight="28" orient="auto" markerUnits="userSpaceOnUse"><path d="M 18,7 L9,13 L1,7 L9,1 Z" style="stroke-width: 2;"/></marker></defs><defs><marker id="my-svg_class-extensionStart" class="marker extension class" refX="18" refY="7" markerWidth="190" markerHeight="240" orient="auto" markerUnits="userSpaceOnUse"><path d="M 1,7 L18,13 V 1 Z"/></marker></defs><defs><marker id="my-svg_class-extensionEnd" class="marker extension class" refX="1" refY="7" markerWidth="20" markerHeight="28" orient="auto"><path d="M 1,1 V 13 L18,7 Z"/></marker></defs><marker id="my-svg_class-extensionStart-margin" class="marker extension class" refX="18" refY="7" markerWidth="20" markerHeight="28" orient="auto" markerUnits="userSpaceOnUse" viewBox="0 0 20 14"><polygon points="10,7 18,13 18,1" style="stroke-width: 2; stroke-dasharray: 0;"/></marker><defs><marker id="my-svg_class-extensionEnd-margin" class="marker extension class" refX="9" refY="7" markerWidth="20" markerHeight="28" orient="auto" markerUnits="userSpaceOnUse" viewBox="0 0 20 14"><polygon points="10,1 10,13 18,7" style="stroke-width: 2; stroke-dasharray: 0;"/></marker></defs><defs><marker id="my-svg_class-compositionStart" class="marker composition class" refX="18" refY="7" markerWidth="190" markerHeight="240" orient="auto"><path d="M 18,7 L9,13 L1,7 L9,1 Z"/></marker></defs><defs><marker id="my-svg_class-compositionEnd" class="marker composition class" refX="1" refY="7" markerWidth="20" markerHeight="28" orient="auto"><path d="M 18,7 L9,13 L1,7 L9,1 Z"/></marker></defs><defs><marker id="my-svg_class-compositionStart-margin" class="marker composition class" refX="15" refY="7" markerWidth="190" markerHeight="240" orient="auto" markerUnits="userSpaceOnUse"><path viewBox="0 0 15 15" d="M 18,7 L9,13 L1,7 L9,1 Z" style="stroke-width: 0;"/></marker></defs><defs><marker id="my-svg_class-compositionEnd-margin" class="marker composition class" refX="3.5" refY="7" markerWidth="20" markerHeight="28" orient="auto" markerUnits="userSpaceOnUse"><path d="M 18,7 L9,13 L1,7 L9,1 Z" style="stroke-width: 0;"/></marker></defs><defs><marker id="my-svg_class-dependencyStart" class="marker dependency class" refX="6" refY="7" markerWidth="190" markerHeight="240" orient="auto"><path d="M 5,7 L9,13 L1,7 L9,1 Z"/></marker></defs><defs><marker id="my-svg_class-dependencyEnd" class="marker dependency class" refX="13" refY="7" markerWidth="20" markerHeight="28" orient="auto"><path d="M 18,7 L9,13 L14,7 L9,1 Z"/></marker></defs><defs><marker id="my-svg_class-dependencyStart-margin" class="marker dependency class" refX="4" refY="7" markerWidth="190" markerHeight="240" orient="auto" markerUnits="userSpaceOnUse"><path d="M 5,7 L9,13 L1,7 L9,1 Z" style="stroke-width: 0;"/></marker></defs><defs><marker id="my-svg_class-dependencyEnd-margin" class="marker dependency class" refX="16" refY="7" markerWidth="20" markerHeight="28" orient="auto" markerUnits="userSpaceOnUse"><path d="M 18,7 L9,13 L14,7 L9,1 Z" style="stroke-width: 0;"/></marker></defs><defs><marker id="my-svg_class-lollipopStart" class="marker lollipop class" refX="13" refY="7" markerWidth="190" markerHeight="240" orient="auto"><circle fill="transparent" cx="7" cy="7" r="6"/></marker></defs><defs><marker id="my-svg_class-lollipopEnd" class="marker lollipop class" refX="1" refY="7" markerWidth="190" markerHeight="240" orient="auto"><circle fill="transparent" cx="7" cy="7" r="6"/></marker></defs><defs><marker id="my-svg_class-lollipopStart-margin" class="marker lollipop class" refX="13" refY="7" markerWidth="190" markerHeight="240" orient="auto" markerUnits="userSpaceOnUse"><circle fill="transparent" cx="7" cy="7" r="6" stroke-width="2"/></marker></defs><defs><marker id="my-svg_class-lollipopEnd-margin" class="marker lollipop class" refX="1" refY="7" markerWidth="190" markerHeight="240" orient="auto" markerUnits="userSpaceOnUse"><circle fill="transparent" cx="7" cy="7" r="6" stroke-width="2"/></marker></defs><g class="root"><g class="clusters"/><g class="edgePaths"><path d="M228.408,160.132L206.9,170.944C185.392,181.755,142.376,203.377,120.867,220.355C99.359,237.333,99.359,249.667,99.359,255.833L99.359,262" id="my-svg-id_Figura_Circulo_1" class="edge-thickness-normal edge-pattern-solid relation" style=";;;" data-edge="true" data-et="edge" data-id="id_Figura_Circulo_1" data-points="W3sieCI6MjQzLjgyMDMxMjUsInkiOjE1Mi4zODUwNzcyNDI2MzI3NX0seyJ4Ijo5OS4zNTkzNzUsInkiOjIyNX0seyJ4Ijo5OS4zNTkzNzUsInkiOjI2Mn1d" data-look="classic" marker-start="url(#my-svg_class-extensionStart)"/><path d="M340.078,217.25L340.078,218.542C340.078,219.833,340.078,222.417,340.078,227.875C340.078,233.333,340.078,241.667,340.078,245.833L340.078,250" id="my-svg-id_Figura_Rectangulo_2" class="edge-thickness-normal edge-pattern-solid relation" style=";;;" data-edge="true" data-et="edge" data-id="id_Figura_Rectangulo_2" data-points="W3sieCI6MzQwLjA3ODEyNSwieSI6MjAwfSx7IngiOjM0MC4wNzgxMjUsInkiOjIyNX0seyJ4IjozNDAuMDc4MTI1LCJ5IjoyNTB9XQ==" data-look="classic" marker-start="url(#my-svg_class-extensionStart)"/><path d="M451.802,159.192L474.004,170.16C496.206,181.128,540.611,203.064,562.813,218.199C585.016,233.333,585.016,241.667,585.016,245.833L585.016,250" id="my-svg-id_Figura_Triangulo_3" class="edge-thickness-normal edge-pattern-solid relation" style=";;;" data-edge="true" data-et="edge" data-id="id_Figura_Triangulo_3" data-points="W3sieCI6NDM2LjMzNTkzNzUsInkiOjE1MS41NTE3MDMyNDA2MjI2fSx7IngiOjU4NS4wMTU2MjUsInkiOjIyNX0seyJ4Ijo1ODUuMDE1NjI1LCJ5IjoyNTB9XQ==" data-look="classic" marker-start="url(#my-svg_class-extensionStart)"/></g><g class="edgeLabels"><g class="edgeLabel"><g class="label" data-id="id_Figura_Circulo_1" transform="translate(0, 0)"><foreignObject width="0" height="0"><div xmlns="http://www.w3.org/1999/xhtml" class="labelBkg" style="display: table-cell; white-space: nowrap; line-height: 1.5; max-width: 200px; text-align: center;"><span class="edgeLabel"></span></div></foreignObject></g></g><g class="edgeLabel"><g class="label" data-id="id_Figura_Rectangulo_2" transform="translate(0, 0)"><foreignObject width="0" height="0"><div xmlns="http://www.w3.org/1999/xhtml" class="labelBkg" style="display: table-cell; white-space: nowrap; line-height: 1.5; max-width: 200px; text-align: center;"><span class="edgeLabel"></span></div></foreignObject></g></g><g class="edgeLabel"><g class="label" data-id="id_Figura_Triangulo_3" transform="translate(0, 0)"><foreignObject width="0" height="0"><div xmlns="http://www.w3.org/1999/xhtml" class="labelBkg" style="display: table-cell; white-space: nowrap; line-height: 1.5; max-width: 200px; text-align: center;"><span class="edgeLabel"></span></div></foreignObject></g></g></g><g class="nodes"><g class="node default" id="my-svg-classId-Figura-0" data-look="classic" transform="translate(340.078125, 104)"><g class="basic label-container outer-path"><path d="M-96.2578125 -96 L96.2578125 -96 L96.2578125 96 L-96.2578125 96" stroke="none" stroke-width="0" fill="#ECECFF" style=""/><path d="M-96.2578125 -96 C-56.62326681385744 -96, -16.988721127714882 -96, 96.2578125 -96 M-96.2578125 -96 C-25.95418520486973 -96, 44.34944209026054 -96, 96.2578125 -96 M96.2578125 -96 C96.2578125 -44.95801238059314, 96.2578125 6.083975238813721, 96.2578125 96 M96.2578125 -96 C96.2578125 -21.40224815761637, 96.2578125 53.19550368476726, 96.2578125 96 M96.2578125 96 C39.393844843774545 96, -17.47012281245091 96, -96.2578125 96 M96.2578125 96 C41.631432825780664 96, -12.994946848438673 96, -96.2578125 96 M-96.2578125 96 C-96.2578125 26.92683675645722, -96.2578125 -42.14632648708556, -96.2578125 -96 M-96.2578125 96 C-96.2578125 49.67379110104476, -96.2578125 3.3475822020895265, -96.2578125 -96" stroke="#9370DB" stroke-width="1.3" fill="none" stroke-dasharray="0 0" style=""/></g><g class="annotation-group text" transform="translate(-37.359375, -72)"><g class="label" style="" transform="translate(0,-12)"><foreignObject width="74.71875" height="24"><div xmlns="http://www.w3.org/1999/xhtml" style="display: table-cell; white-space: nowrap; line-height: 1.5; max-width: 116px; text-align: center;"><span class="nodeLabel markdown-node-label" style=""><p>«abstract»</p></span></div></foreignObject></g></g><g class="label-group text" transform="translate(-24.4453125, -48)"><g class="label" style="font-weight: bolder" transform="translate(0,-12)"><foreignObject width="48.890625" height="24"><div xmlns="http://www.w3.org/1999/xhtml" style="display: table-cell; white-space: nowrap; line-height: 1.5; max-width: 92px; text-align: center;"><span class="nodeLabel markdown-node-label" style=""><p>Figura</p></span></div></foreignObject></g></g><g class="members-group text" transform="translate(-84.2578125, 0)"><g class="label" style="" transform="translate(0,-12)"><foreignObject width="90.265625" height="24"><div xmlns="http://www.w3.org/1999/xhtml" style="display: table-cell; white-space: nowrap; line-height: 1.5; max-width: 140px; text-align: center;"><span class="nodeLabel markdown-node-label" style=""><p>+String color</p></span></div></foreignObject></g></g><g class="methods-group text" transform="translate(-84.2578125, 48)"><g class="label" style="" transform="translate(0,-12)"><foreignObject width="95.609375" height="24"><div xmlns="http://www.w3.org/1999/xhtml" style="display: table-cell; white-space: nowrap; line-height: 1.5; max-width: 143px; text-align: center;"><span class="nodeLabel markdown-node-label" style=""><p>+area() : float</p></span></div></foreignObject></g><g class="label" style="" transform="translate(0,12)"><foreignObject width="131.15625" height="24"><div xmlns="http://www.w3.org/1999/xhtml" style="display: table-cell; white-space: nowrap; line-height: 1.5; max-width: 179px; text-align: center;"><span class="nodeLabel markdown-node-label" style=""><p>+perimetro() : float</p></span></div></foreignObject></g></g><g class="divider" style=""><path d="M-96.2578125 -24 C-29.597552486426096 -23.99965374104043, 37.06270752714781 -23.99930748208086, 96.2578125 -23.999 M-96.2578125 -24 C-43.4995136301287 -23.99972595315902, 9.258785239742593 -23.999451906318047, 96.2578125 -23.999" stroke="#9370DB" stroke-width="1.3" fill="none" stroke-dasharray="0 0" style=""/></g><g class="divider" style=""><path d="M-96.2578125 24 C-40.22607715320271 24.00029105032564, 15.805658193594581 24.00058210065128, 96.2578125 24.001 M-96.2578125 24 C-44.863091187998556 24.00026696389611, 6.531630124002888 24.00053392779222, 96.2578125 24.001" stroke="#9370DB" stroke-width="1.3" fill="none" stroke-dasharray="0 0" style=""/></g></g><g class="node default" id="my-svg-classId-Circulo-1" data-look="classic" transform="translate(99.359375, 346)"><g class="basic label-container outer-path"><path d="M-91.359375 -84 L91.359375 -84 L91.359375 84 L-91.359375 84" stroke="none" stroke-width="0" fill="#ECECFF" style=""/><path d="M-91.359375 -84 C-48.401393900136775 -84, -5.443412800273549 -84, 91.359375 -84 M-91.359375 -84 C-35.70271327647343 -84, 19.953948447053136 -84, 91.359375 -84 M91.359375 -84 C91.359375 -29.400058860609064, 91.359375 25.19988227878187, 91.359375 84 M91.359375 -84 C91.359375 -23.037148450322157, 91.359375 37.92570309935569, 91.359375 84 M91.359375 84 C24.170307936144525 84, -43.01875912771095 84, -91.359375 84 M91.359375 84 C37.21314047252877 84, -16.93309405494246 84, -91.359375 84 M-91.359375 84 C-91.359375 40.98937375292351, -91.359375 -2.021252494152975, -91.359375 -84 M-91.359375 84 C-91.359375 46.27496005597549, -91.359375 8.549920111950982, -91.359375 -84" stroke="#9370DB" stroke-width="1.3" fill="none" stroke-dasharray="0 0" style=""/></g><g class="annotation-group text" transform="translate(0, -60)"/><g class="label-group text" transform="translate(-27.5625, -60)"><g class="label" style="font-weight: bolder" transform="translate(0,-12)"><foreignObject width="55.125" height="24"><div xmlns="http://www.w3.org/1999/xhtml" style="display: table-cell; white-space: nowrap; line-height: 1.5; max-width: 98px; text-align: center;"><span class="nodeLabel markdown-node-label" style=""><p>Circulo</p></span></div></foreignObject></g></g><g class="members-group text" transform="translate(-79.359375, -12)"><g class="label" style="" transform="translate(0,-12)"><foreignObject width="79.609375" height="24"><div xmlns="http://www.w3.org/1999/xhtml" style="display: table-cell; white-space: nowrap; line-height: 1.5; max-width: 130px; text-align: center;"><span class="nodeLabel markdown-node-label" style=""><p>+float radio</p></span></div></foreignObject></g></g><g class="methods-group text" transform="translate(-79.359375, 36)"><g class="label" style="" transform="translate(0,-12)"><foreignObject width="95.609375" height="24"><div xmlns="http://www.w3.org/1999/xhtml" style="display: table-cell; white-space: nowrap; line-height: 1.5; max-width: 143px; text-align: center;"><span class="nodeLabel markdown-node-label" style=""><p>+area() : float</p></span></div></foreignObject></g><g class="label" style="" transform="translate(0,12)"><foreignObject width="131.15625" height="24"><div xmlns="http://www.w3.org/1999/xhtml" style="display: table-cell; white-space: nowrap; line-height: 1.5; max-width: 179px; text-align: center;"><span class="nodeLabel markdown-node-label" style=""><p>+perimetro() : float</p></span></div></foreignObject></g></g><g class="divider" style=""><path d="M-91.359375 -36 C-51.63684841397926 -35.9997826028988, -11.914321827958517 -35.99956520579759, 91.359375 -35.999 M-91.359375 -36 C-23.933213894574706 -35.99963098389681, 43.49294721085059 -35.999261967793615, 91.359375 -35.999" stroke="#9370DB" stroke-width="1.3" fill="none" stroke-dasharray="0 0" style=""/></g><g class="divider" style=""><path d="M-91.359375 12 C-50.582075445560626 12.000223169759833, -9.804775891121253 12.000446339519666, 91.359375 12.001 M-91.359375 12 C-50.34718846511909 12.000224455270928, -9.335001930238178 12.000448910541856, 91.359375 12.001" stroke="#9370DB" stroke-width="1.3" fill="none" stroke-dasharray="0 0" style=""/></g></g><g class="node default" id="my-svg-classId-Rectangulo-2" data-look="classic" transform="translate(340.078125, 346)"><g class="basic label-container outer-path"><path d="M-99.359375 -96 L99.359375 -96 L99.359375 96 L-99.359375 96" stroke="none" stroke-width="0" fill="#ECECFF" style=""/><path d="M-99.359375 -96 C-56.23294047803281 -96, -13.106505956065618 -96, 99.359375 -96 M-99.359375 -96 C-50.95548279447027 -96, -2.5515905889405417 -96, 99.359375 -96 M99.359375 -96 C99.359375 -36.71166599737693, 99.359375 22.576668005246134, 99.359375 96 M99.359375 -96 C99.359375 -33.45531308912575, 99.359375 29.089373821748495, 99.359375 96 M99.359375 96 C42.9786035635331 96, -13.402167872933802 96, -99.359375 96 M99.359375 96 C40.56857339194434 96, -18.22222821611132 96, -99.359375 96 M-99.359375 96 C-99.359375 23.501828294947018, -99.359375 -48.996343410105965, -99.359375 -96 M-99.359375 96 C-99.359375 55.95958369305161, -99.359375 15.919167386103226, -99.359375 -96" stroke="#9370DB" stroke-width="1.3" fill="none" stroke-dasharray="0 0" style=""/></g><g class="annotation-group text" transform="translate(0, -72)"/><g class="label-group text" transform="translate(-43.5625, -72)"><g class="label" style="font-weight: bolder" transform="translate(0,-12)"><foreignObject width="87.125" height="24"><div xmlns="http://www.w3.org/1999/xhtml" style="display: table-cell; white-space: nowrap; line-height: 1.5; max-width: 123px; text-align: center;"><span class="nodeLabel markdown-node-label" style=""><p>Rectangulo</p></span></div></foreignObject></g></g><g class="members-group text" transform="translate(-87.359375, -24)"><g class="label" style="" transform="translate(0,-12)"><foreignObject width="87.625" height="24"><div xmlns="http://www.w3.org/1999/xhtml" style="display: table-cell; white-space: nowrap; line-height: 1.5; max-width: 135px; text-align: center;"><span class="nodeLabel markdown-node-label" style=""><p>+float ancho</p></span></div></foreignObject></g><g class="label" style="" transform="translate(0,12)"><foreignObject width="69.828125" height="24"><div xmlns="http://www.w3.org/1999/xhtml" style="display: table-cell; white-space: nowrap; line-height: 1.5; max-width: 121px; text-align: center;"><span class="nodeLabel markdown-node-label" style=""><p>+float alto</p></span></div></foreignObject></g></g><g class="methods-group text" transform="translate(-87.359375, 48)"><g class="label" style="" transform="translate(0,-12)"><foreignObject width="95.609375" height="24"><div xmlns="http://www.w3.org/1999/xhtml" style="display: table-cell; white-space: nowrap; line-height: 1.5; max-width: 143px; text-align: center;"><span class="nodeLabel markdown-node-label" style=""><p>+area() : float</p></span></div></foreignObject></g><g class="label" style="" transform="translate(0,12)"><foreignObject width="131.15625" height="24"><div xmlns="http://www.w3.org/1999/xhtml" style="display: table-cell; white-space: nowrap; line-height: 1.5; max-width: 179px; text-align: center;"><span class="nodeLabel markdown-node-label" style=""><p>+perimetro() : float</p></span></div></foreignObject></g></g><g class="divider" style=""><path d="M-99.359375 -48 C-37.78943020323923 -47.9996901653981, 23.780514593521545 -47.9993803307962, 99.359375 -47.999 M-99.359375 -48 C-39.230412143206195 -47.99969741676185, 20.89855071358761 -47.999394833523695, 99.359375 -47.999" stroke="#9370DB" stroke-width="1.3" fill="none" stroke-dasharray="0 0" style=""/></g><g class="divider" style=""><path d="M-99.359375 24 C-40.65985494758581 24.000295389942078, 18.039665104828373 24.000590779884156, 99.359375 24.001 M-99.359375 24 C-35.96732647653654 24.000319003861105, 27.424722046926917 24.000638007722205, 99.359375 24.001" stroke="#9370DB" stroke-width="1.3" fill="none" stroke-dasharray="0 0" style=""/></g></g><g class="node default" id="my-svg-classId-Triangulo-3" data-look="classic" transform="translate(585.015625, 346)"><g class="basic label-container outer-path"><path d="M-95.578125 -96 L95.578125 -96 L95.578125 96 L-95.578125 96" stroke="none" stroke-width="0" fill="#ECECFF" style=""/><path d="M-95.578125 -96 C-25.045698324805514 -96, 45.48672835038897 -96, 95.578125 -96 M-95.578125 -96 C-48.678595348604844 -96, -1.7790656972096883 -96, 95.578125 -96 M95.578125 -96 C95.578125 -47.438044864981336, 95.578125 1.123910270037328, 95.578125 96 M95.578125 -96 C95.578125 -25.9087500732805, 95.578125 44.182499853439, 95.578125 96 M95.578125 96 C36.991147798811475 96, -21.59582940237705 96, -95.578125 96 M95.578125 96 C45.75624367944981 96, -4.0656376411003805 96, -95.578125 96 M-95.578125 96 C-95.578125 22.939737461755783, -95.578125 -50.120525076488434, -95.578125 -96 M-95.578125 96 C-95.578125 26.521507077998862, -95.578125 -42.956985844002276, -95.578125 -96" stroke="#9370DB" stroke-width="1.3" fill="none" stroke-dasharray="0 0" style=""/></g><g class="annotation-group text" transform="translate(0, -72)"/><g class="label-group text" transform="translate(-36, -72)"><g class="label" style="font-weight: bolder" transform="translate(0,-12)"><foreignObject width="72" height="24"><div xmlns="http://www.w3.org/1999/xhtml" style="display: table-cell; white-space: nowrap; line-height: 1.5; max-width: 113px; text-align: center;"><span class="nodeLabel markdown-node-label" style=""><p>Triangulo</p></span></div></foreignObject></g></g><g class="members-group text" transform="translate(-83.578125, -24)"><g class="label" style="" transform="translate(0,-12)"><foreignObject width="78.734375" height="24"><div xmlns="http://www.w3.org/1999/xhtml" style="display: table-cell; white-space: nowrap; line-height: 1.5; max-width: 125px; text-align: center;"><span class="nodeLabel markdown-node-label" style=""><p>+float base</p></span></div></foreignObject></g><g class="label" style="" transform="translate(0,12)"><foreignObject width="84.0625" height="24"><div xmlns="http://www.w3.org/1999/xhtml" style="display: table-cell; white-space: nowrap; line-height: 1.5; max-width: 133px; text-align: center;"><span class="nodeLabel markdown-node-label" style=""><p>+float altura</p></span></div></foreignObject></g></g><g class="methods-group text" transform="translate(-83.578125, 48)"><g class="label" style="" transform="translate(0,-12)"><foreignObject width="95.609375" height="24"><div xmlns="http://www.w3.org/1999/xhtml" style="display: table-cell; white-space: nowrap; line-height: 1.5; max-width: 143px; text-align: center;"><span class="nodeLabel markdown-node-label" style=""><p>+area() : float</p></span></div></foreignObject></g><g class="label" style="" transform="translate(0,12)"><foreignObject width="131.15625" height="24"><div xmlns="http://www.w3.org/1999/xhtml" style="display: table-cell; white-space: nowrap; line-height: 1.5; max-width: 179px; text-align: center;"><span class="nodeLabel markdown-node-label" style=""><p>+perimetro() : float</p></span></div></foreignObject></g></g><g class="divider" style=""><path d="M-95.578125 -48 C-34.97764508610398 -47.99968297934327, 25.622834827792033 -47.99936595868653, 95.578125 -47.999 M-95.578125 -48 C-40.43988882005831 -47.99971155410205, 14.698347359883385 -47.999423108204105, 95.578125 -47.999" stroke="#9370DB" stroke-width="1.3" fill="none" stroke-dasharray="0 0" style=""/></g><g class="divider" style=""><path d="M-95.578125 24 C-43.040148681280904 24.00027484309992, 9.497827637438192 24.000549686199836, 95.578125 24.001 M-95.578125 24 C-27.13795626253517 24.000358032597614, 41.30221247492966 24.000716065195228, 95.578125 24.001" stroke="#9370DB" stroke-width="1.3" fill="none" stroke-dasharray="0 0" style=""/></g></g></g></g></g><defs><filter id="my-svg-drop-shadow" height="130%" width="130%"><feDropShadow dx="4" dy="4" stdDeviation="0" flood-opacity="0.06" flood-color="#000000"/></filter></defs><defs><filter id="my-svg-drop-shadow-small" height="150%" width="150%"><feDropShadow dx="2" dy="2" stdDeviation="0" flood-opacity="0.06" flood-color="#000000"/></filter></defs></svg>