<?xml version="1.0" encoding="UTF-8"?><svg xmlns="http://www.w3.org/2000/svg" width="600" height="98" version="1.0" shape-rendering="geometricPrecision"><defs><filter id="shadowBlur" x="0" y="0" width="200%" height="200%"><feOffset in="SourceGraphic" dx="3.0003002" dy="3.0003002" result="offOut"></feOffset><feGaussianBlur in="offOut" stdDeviation="3"></feGaussianBlur></filter></defs><g stroke-width="1" stroke-linecap="square" stroke-linejoin="round"><rect x="0" y="0" width="600" height="98" style="fill: #ffffff"></rect><path stroke="#000000" stroke-width="1.0" stroke-linecap="round" stroke-linejoin="round" fill="none" d="M125.0 35.0 L25.0 35.0 L25.0 63.0 L125.0 63.0 "></path><path stroke="none" stroke-width="1.0" stroke-linecap="round" stroke-linejoin="round" fill="#000000" d="M200.0 42.0 L210.0 49.0 L200.0 56.0 z"></path><path stroke="none" stroke-width="1.0" stroke-linecap="round" stroke-linejoin="round" fill="#000000" d="M410.0 42.0 L420.0 49.0 L410.0 56.0 z"></path><path stroke="#000000" stroke-width="1.0" stroke-linecap="round" stroke-linejoin="round" fill="none" d="M145.0 42.0 L145.0 55.0 "></path><path stroke="#000000" stroke-width="1.0" stroke-linecap="round" stroke-linejoin="round" fill="none" d="M215.0 42.0 L215.0 55.0 "></path><path stroke="#000000" stroke-width="1.0" stroke-linecap="round" stroke-linejoin="round" fill="none" d="M355.0 42.0 L355.0 55.0 "></path><path stroke="#000000" stroke-width="1.0" stroke-linecap="round" stroke-linejoin="round" fill="none" d="M425.0 42.0 L425.0 55.0 "></path><path stroke="#000000" stroke-width="1.0" stroke-linecap="round" stroke-linejoin="round" fill="none" d="M575.0 42.0 L575.0 55.0 "></path><path stroke="#000000" stroke-width="1.0" stroke-linecap="round" stroke-linejoin="round" fill="none" d="M215.0 35.0 L325.0 35.0 "></path><path stroke="#000000" stroke-width="1.0" stroke-linecap="round" stroke-linejoin="round" fill="none" d="M415.0 35.0 L535.0 35.0 "></path><path stroke="#000000" stroke-width="1.0" stroke-linecap="round" stroke-linejoin="round" fill="none" d="M155.0 49.0 L205.0 49.0 "></path><path stroke="#000000" stroke-width="1.0" stroke-linecap="round" stroke-linejoin="round" fill="none" d="M365.0 49.0 L415.0 49.0 "></path><path stroke="#000000" stroke-width="1.0" stroke-linecap="round" stroke-linejoin="round" fill="none" d="M215.0 63.0 L325.0 63.0 "></path><path stroke="#000000" stroke-width="1.0" stroke-linecap="round" stroke-linejoin="round" fill="none" d="M415.0 63.0 L535.0 63.0 "></path><text x="201" y="40" font-family="sans-serif" font-size="15" stroke="none" fill="#000000"><![CDATA[+ ]]></text><text x="401" y="40" font-family="sans-serif" font-size="15" stroke="none" fill="#ffffff"><![CDATA[+ ]]></text><text x="42" y="54" font-family="sans-serif" font-size="15" stroke="none" fill="#000000"><![CDATA[Generador]]></text><text x="241" y="54" font-family="sans-serif" font-size="15" stroke="none" fill="#000000"><![CDATA[Circuito RC]]></text><text x="450" y="54" font-family="sans-serif" font-size="15" stroke="none" fill="#000000"><![CDATA[Osciloscopio]]></text><text x="201" y="68" font-family="sans-serif" font-size="15" stroke="none" fill="#000000"><![CDATA[+ ]]></text><text x="401" y="68" font-family="sans-serif" font-size="15" stroke="none" fill="#ffffff"><![CDATA[+ ]]></text></g></svg>