<?xml version="1.0" encoding="UTF-8" standalone="no"?>
<!DOCTYPE svg PUBLIC "-//W3C//DTD SVG 1.1//EN"
 "http://www.w3.org/Graphics/SVG/1.1/DTD/svg11.dtd">
<!-- Generated by graphviz version 9.0.0 (20230911.1827)
 -->
<!-- Title: G Pages: 1 -->
<svg width="585pt" height="98pt"
 viewBox="0.00 0.00 584.59 98.00" xmlns="http://www.w3.org/2000/svg" xmlns:xlink="http://www.w3.org/1999/xlink">
<g id="graph0" class="graph" transform="scale(1 1) rotate(0) translate(4 94)">
<title>G</title>
<polygon fill="white" stroke="none" points="-4,4 -4,-94 580.59,-94 580.59,4 -4,4"/>
<!-- Controller -->
<g id="node1" class="node">
<title>Controller</title>
<ellipse fill="none" stroke="black" cx="62.26" cy="-45" rx="62.26" ry="18"/>
<text text-anchor="middle" x="62.26" y="-40.33" font-family="Times,serif" font-size="14.00">Controller</text>
</g>
<!-- Service -->
<g id="node2" class="node">
<title>Service</title>
<ellipse fill="none" stroke="black" cx="209.09" cy="-45" rx="48.58" ry="18"/>
<text text-anchor="middle" x="209.09" y="-40.33" font-family="Times,serif" font-size="14.00">Service</text>
</g>
<!-- Controller&#45;&gt;Service -->
<g id="edge1" class="edge">
<title>Controller&#45;&gt;Service</title>
<path fill="none" stroke="black" d="M124.68,-45C132.66,-45 140.82,-45 148.76,-45"/>
<polygon fill="black" stroke="black" points="148.68,-48.5 158.68,-45 148.68,-41.5 148.68,-48.5"/>
</g>
<!-- Repository -->
<g id="node3" class="node">
<title>Repository</title>
<ellipse fill="none" stroke="black" cx="359.08" cy="-72" rx="65.41" ry="18"/>
<text text-anchor="middle" x="359.08" y="-67.33" font-family="Times,serif" font-size="14.00">Repository</text>
</g>
<!-- Service&#45;&gt;Repository -->
<g id="edge2" class="edge">
<title>Service&#45;&gt;Repository</title>
<path fill="none" stroke="black" d="M253.29,-52.88C265.62,-55.13 279.34,-57.63 292.68,-60.07"/>
<polygon fill="black" stroke="black" points="291.81,-63.47 302.27,-61.82 293.06,-56.58 291.81,-63.47"/>
</g>
<!-- Cache -->
<g id="node5" class="node">
<title>Cache</title>
<ellipse fill="none" stroke="black" cx="359.08" cy="-18" rx="41.74" ry="18"/>
<text text-anchor="middle" x="359.08" y="-13.32" font-family="Times,serif" font-size="14.00">Cache</text>
</g>
<!-- Service&#45;&gt;Cache -->
<g id="edge4" class="edge">
<title>Service&#45;&gt;Cache</title>
<path fill="none" stroke="black" d="M253.29,-37.12C270.73,-33.94 290.95,-30.25 308.94,-26.96"/>
<polygon fill="black" stroke="black" points="309.41,-30.44 318.62,-25.2 308.15,-23.55 309.41,-30.44"/>
</g>
<!-- Database -->
<g id="node4" class="node">
<title>Database</title>
<ellipse fill="none" stroke="black" cx="518.54" cy="-72" rx="58.05" ry="18"/>
<text text-anchor="middle" x="518.54" y="-67.33" font-family="Times,serif" font-size="14.00">Database</text>
</g>
<!-- Repository&#45;&gt;Database -->
<g id="edge3" class="edge">
<title>Repository&#45;&gt;Database</title>
<path fill="none" stroke="black" d="M424.58,-72C432.66,-72 440.95,-72 449.09,-72"/>
<polygon fill="black" stroke="black" points="448.95,-75.5 458.95,-72 448.95,-68.5 448.95,-75.5"/>
</g>
</g>
</svg>
